<svg width="32" height="34" viewBox="0 0 32 34" fill="none" xmlns="http://www.w3.org/2000/svg">
<path d="M16 0C13.5062 0 11.4771 2.02911 11.4771 4.52293V5.88758H13.8165V4.52293C13.8165 3.31892 14.7964 2.33943 16 2.33943C17.2041 2.33943 18.1839 3.31885 18.1839 4.52293V5.88758H20.5234V4.52293C20.5234 2.02911 18.4939 0 16 0Z" fill="white"/>
<path d="M19.1973 28.5019C19.1973 30.2436 17.7804 31.6605 16.039 31.6605H15.9611C14.2198 31.6605 12.8028 30.2436 12.8028 28.5019H10.4634C10.4634 31.5338 12.9296 34 15.9611 34H16.039C19.0705 34 21.5367 31.5338 21.5367 28.5019H19.1973Z" fill="white"/>
<path d="M31.1375 28.0648L27.8143 22.895V16.2592C27.8143 9.68024 22.5143 4.32796 16.0001 4.32796C9.4855 4.32796 4.18589 9.68024 4.18589 16.2592V22.895L0.862718 28.0644C0.631093 28.4243 0.614757 28.8821 0.819819 29.2575C1.02488 29.633 1.41834 29.8669 1.84646 29.8669H30.1538C30.5819 29.8669 30.9753 29.633 31.18 29.2579C31.3854 28.8825 31.3691 28.4247 31.1375 28.0648ZM3.98893 27.5275L6.33931 23.871C6.46057 23.6827 6.52531 23.4627 6.52531 23.2385V16.2592C6.52531 10.9704 10.7757 6.66745 16.0001 6.66745C21.2249 6.66745 25.4749 10.9705 25.4749 16.2592V23.2385C25.4749 23.4627 25.5392 23.6823 25.6605 23.871L28.0109 27.5275H3.98893Z" fill="white"/>
</svg>
