<svg width="52" height="52" viewBox="0 0 52 52" fill="none" xmlns="http://www.w3.org/2000/svg">
<path d="M50.4205 10.6986H49.46C49.4327 9.17915 48.1889 7.95128 46.6631 7.95128H44.3387V4.32202C44.3387 2.77914 43.083 1.5235 41.5402 1.5235H10.4597C8.91646 1.5235 7.66121 2.77914 7.66121 4.32202V7.95128H5.33678C3.81097 7.95128 2.56723 9.17915 2.53985 10.6986H1.57937C0.708556 10.6986 0 11.4072 0 12.278V20.4141C0 21.2849 0.708556 21.9935 1.57937 21.9935H5.02416C5.89498 21.9935 6.60353 21.2849 6.60353 20.4141V12.278C6.60353 11.4072 5.89498 10.6986 5.02416 10.6986H4.06765C4.09463 10.021 4.65282 9.47749 5.33678 9.47749H7.66121V37.7923C7.66121 38.2141 8.00279 38.5556 8.42451 38.5556C8.84584 38.5556 9.18782 38.2141 9.18782 37.7923V31.4983C9.56947 31.6942 10.0019 31.8053 10.4597 31.8053H41.5402C41.998 31.8053 42.4304 31.6942 42.8121 31.4983V43.8202C42.8121 44.5216 42.2416 45.0921 41.5402 45.0921H10.4597C9.75831 45.0921 9.18782 44.5216 9.18782 43.8202V41.32C9.18782 40.8987 8.84584 40.5567 8.42451 40.5567C8.00279 40.5567 7.66121 40.8987 7.66121 41.32V43.8202C7.66121 45.3631 8.91646 46.6183 10.4597 46.6183H11.2536V48.3925C11.2536 49.5708 12.2121 50.5297 13.3908 50.5297H16.8217C17.9999 50.5297 18.9584 49.5708 18.9584 48.3925V46.6183H33.0415V48.3925C33.0415 49.5708 34 50.5297 35.1782 50.5297H38.6091C39.7878 50.5297 40.7463 49.5708 40.7463 48.3925V46.6183H41.5402C43.0834 46.6183 44.3387 45.3631 44.3387 43.8202V9.47749H46.6631C47.3471 9.47749 47.9053 10.021 47.9326 10.6986H46.9761C46.1053 10.6986 45.3964 11.4072 45.3964 12.278V20.4141C45.3964 21.2849 46.1053 21.9935 46.9761 21.9935H50.4205C51.2913 21.9935 51.9999 21.2849 51.9999 20.4141V12.278C51.9999 11.4072 51.2913 10.6986 50.4205 10.6986V10.6986ZM5.02416 12.2248C5.05352 12.2248 5.07693 12.2486 5.07693 12.278V20.4141C5.07693 20.4434 5.05312 20.4672 5.02416 20.4672H1.57937C1.55002 20.4672 1.52621 20.4434 1.52621 20.4141V12.278C1.52621 12.2486 1.55002 12.2248 1.57937 12.2248H5.02416ZM17.4322 48.3925C17.4322 48.7289 17.1581 49.0031 16.8217 49.0031H13.3908C13.0539 49.0031 12.7802 48.7289 12.7802 48.3925V46.6183H17.4318V48.3925H17.4322ZM39.2197 48.3925C39.2197 48.7289 38.946 49.0031 38.6091 49.0031H35.1782C34.8418 49.0031 34.5677 48.7289 34.5677 48.3925V46.6183H39.2197V48.3925ZM42.8121 10.6391H11.9907C11.5694 10.6391 11.2278 10.9807 11.2278 11.4024C11.2278 11.8237 11.5694 12.1657 11.9907 12.1657H42.8125V26.6233H37.7705C37.3487 26.6233 37.0072 26.9649 37.0072 27.3866C37.0072 27.8083 37.3487 28.1499 37.7705 28.1499H42.8125V29.0072C42.8125 29.7082 42.242 30.2791 41.5406 30.2791H10.4597C9.75831 30.2791 9.18782 29.7082 9.18782 29.0072V28.1499H34.2086C34.6304 28.1499 34.9719 27.8083 34.9719 27.3866C34.9719 26.9649 34.6304 26.6233 34.2086 26.6233H26.7022L33.9028 20.6041C34.2253 20.3343 34.2682 19.8539 33.9984 19.531C33.7286 19.2084 33.2482 19.1652 32.9256 19.4354L24.3269 26.6233H21.0496L28.2498 20.6041C28.5727 20.3343 28.6156 19.8539 28.3458 19.5314C28.076 19.2084 27.5956 19.1652 27.2727 19.4354L18.6744 26.6237H9.18782V8.19686H42.8121V10.6391ZM42.8121 6.67025H9.18782V4.32202C9.18782 3.6206 9.75831 3.05011 10.4597 3.05011H41.5402C42.2416 3.05011 42.8121 3.6206 42.8121 4.32202V6.67025ZM50.4737 20.4141C50.4737 20.4434 50.4499 20.4672 50.4205 20.4672H46.9761C46.9468 20.4672 46.923 20.4434 46.923 20.4141V12.278C46.923 12.2486 46.9468 12.2248 46.9761 12.2248H50.4205C50.4499 12.2248 50.4737 12.2486 50.4737 12.278V20.4141Z" fill="#828282"/>
<path d="M18.8514 39.8446C19.5528 39.8446 20.1233 39.2737 20.1233 38.5723V37.3512C20.1233 35.696 18.7768 34.3495 17.1212 34.3495H12.4402C11.7388 34.3495 11.1683 34.92 11.1683 35.6215V36.8426C11.1683 38.4977 12.5148 39.8446 14.1704 39.8446H18.8514ZM12.6945 36.8426V35.8758H17.1212C17.9349 35.8758 18.5967 36.5379 18.5967 37.3512V38.318H14.1704C13.3567 38.318 12.6945 37.6559 12.6945 36.8426Z" fill="#828282"/>
<path d="M37.8296 39.8446C39.4852 39.8446 40.8317 38.4977 40.8317 36.8426V35.6215C40.8317 34.92 40.2612 34.3495 39.5598 34.3495H34.8788C33.2236 34.3495 31.8767 35.696 31.8767 37.3512V38.5723C31.8767 39.2737 32.4472 39.8446 33.1486 39.8446H37.8296ZM33.4029 37.3512C33.4029 36.5375 34.0651 35.8758 34.8788 35.8758H39.3051V36.8426C39.3051 37.6563 38.6433 38.318 37.8296 38.318H33.4029V37.3512Z" fill="#828282"/>
<path d="M29.369 43.9488C29.9082 43.9488 30.3466 43.5104 30.3466 42.9712V40.9578C30.3466 40.4187 29.9082 39.9803 29.369 39.9803H22.631C22.0918 39.9803 21.6534 40.4187 21.6534 40.9578V42.9712C21.6534 43.5104 22.0918 43.9488 22.631 43.9488H29.369ZM23.1797 41.5065H28.8203V42.4225H23.1797V41.5065Z" fill="#828282"/>
</svg>
