<svg width="54" height="54" viewBox="0 0 54 54" fill="none" xmlns="http://www.w3.org/2000/svg">
<g clip-path="url(#clip0_1:149)">
<path d="M53.9346 30.1024C53.5356 27.3379 51.3638 25.1661 48.5993 24.7671V23.1309C48.5993 18.6165 45.1676 14.941 40.9494 14.941C36.8526 14.941 33.4228 18.5049 33.2995 22.8861H33.3517L33.2995 22.8951V40.6311C33.2995 46.301 29.0606 50.9054 23.8496 50.9054C18.6387 50.9054 14.3998 46.2947 14.3998 40.6311V39.0948C15.7048 39.0948 17.0997 38.149 17.0997 35.4949V33.2314C22.8759 31.7546 26.9996 26.7947 26.9996 21.1716V19.2951H25.1996L25.1618 7.58181C25.1488 5.41363 23.5929 3.56235 21.4593 3.17637C20.999 1.76643 19.4829 0.99649 18.0729 1.45683C16.6629 1.91706 15.893 3.4332 16.3533 4.84326C16.8135 6.2532 18.3297 7.02314 19.7397 6.5628C20.4947 6.31631 21.1019 5.74831 21.3981 5.01144C22.5511 5.33949 23.3498 6.38842 23.3591 7.58721L23.3996 19.2951H21.5997V21.1977C21.5279 24.3282 19.4291 27.0486 16.4194 27.9125C14.8089 28.4235 13.0798 28.4235 11.4694 27.9125C8.46314 27.0457 6.36909 24.3257 6.29991 21.1977V19.2951H3.59995V7.59531C3.60512 6.37886 4.42321 5.31598 5.59792 4.99974C6.14567 6.39416 7.72008 7.0804 9.1145 6.53265C10.5089 5.98489 11.1952 4.41037 10.6474 3.01606C10.0996 1.62176 8.52512 0.935404 7.13082 1.48316C6.37528 1.78004 5.79231 2.39957 5.54212 3.17187C3.38519 3.54042 1.80594 5.4071 1.79997 7.59531V19.2951H0V21.1671C0 26.7965 4.12644 31.7582 9.89985 33.2314V35.4949C9.89985 38.149 11.2948 39.0948 12.5998 39.0948V40.6311C12.5998 47.291 17.646 52.7053 23.8496 52.7053C30.0532 52.7053 35.0995 47.2847 35.0995 40.6311V22.9383C35.1895 19.5228 37.8156 16.7437 40.9494 16.7437C44.1749 16.7437 46.7993 19.6092 46.7993 23.1336V24.7671C43.3556 25.2641 40.9669 28.4587 41.464 31.9024C41.961 35.3461 45.1556 37.7347 48.5993 37.2377C52.043 36.7407 54.4316 33.546 53.9346 30.1024ZM18.8997 4.89535C18.4027 4.89535 17.9997 4.49238 17.9997 3.99536C17.9997 3.49834 18.4027 3.09537 18.8997 3.09537C19.3967 3.09537 19.7997 3.49834 19.7997 3.99536C19.7997 4.49238 19.3967 4.89535 18.8997 4.89535ZM8.09988 3.09537C8.5969 3.09537 8.99986 3.49834 8.99986 3.99536C8.99986 4.49238 8.5969 4.89535 8.09988 4.89535C7.60286 4.89535 7.19989 4.49238 7.19989 3.99536C7.19989 3.49834 7.60286 3.09537 8.09988 3.09537ZM1.79997 21.1671V21.0951H4.49993V21.1977C4.56743 25.1094 7.16985 28.5231 10.924 29.6243C12.8913 30.2472 15.0029 30.2472 16.9701 29.6243C20.7261 28.5246 23.3309 25.1107 23.3996 21.1977V21.0951H25.1996V21.1671C25.1996 26.1737 21.3405 30.5792 16.0198 31.6448C14.7704 31.8949 13.4906 31.9577 12.2227 31.8311C11.8053 31.7906 11.3905 31.7278 10.9798 31.643C5.65911 30.5792 1.79997 26.1737 1.79997 21.1671ZM12.5998 37.2949C11.7898 37.2949 11.6998 36.0349 11.6998 35.4949V33.5851C11.7718 33.5941 11.8456 33.5977 11.9185 33.6049C12.0085 33.6148 12.0985 33.622 12.1885 33.6301C12.6142 33.6679 13.0435 33.6931 13.4764 33.694H13.5214C13.9534 33.694 14.3818 33.6679 14.8048 33.6301C14.8948 33.622 14.9902 33.6148 15.0829 33.6049C15.154 33.5968 15.2278 33.5941 15.2989 33.5851V35.4949C15.2989 36.0349 15.2089 37.2949 14.3989 37.2949H12.5998ZM47.6993 35.4949C45.2141 35.4949 43.1994 33.4802 43.1994 30.995C43.1994 28.5098 45.2141 26.495 47.6993 26.495C50.1845 26.495 52.1992 28.5098 52.1992 30.995C52.1963 33.479 50.1832 35.492 47.6993 35.4949Z" fill="#828282"/>
<path d="M47.6993 28.295C46.2082 28.295 44.9994 29.5038 44.9994 30.995C44.9994 32.4862 46.2082 33.695 47.6993 33.695C49.1905 33.695 50.3993 32.4862 50.3993 30.995C50.3993 29.5038 49.1905 28.295 47.6993 28.295ZM47.6993 31.895C47.2023 31.895 46.7994 31.492 46.7994 30.995C46.7994 30.498 47.2023 30.095 47.6993 30.095C48.1964 30.095 48.5993 30.498 48.5993 30.995C48.5993 31.492 48.1964 31.895 47.6993 31.895Z" fill="#828282"/>
</g>
<defs>
<clipPath id="clip0_1:149">
<rect width="54" height="54" fill="white"/>
</clipPath>
</defs>
</svg>
