<svg width="23" height="15" viewBox="0 0 23 15" fill="none" xmlns="http://www.w3.org/2000/svg">
<path d="M11.4999 0.3125C6.70825 0.3125 2.61617 3.29292 0.958252 7.5C2.61617 11.7071 6.70825 14.6875 11.4999 14.6875C16.2916 14.6875 20.3837 11.7071 22.0416 7.5C20.3837 3.29292 16.2916 0.3125 11.4999 0.3125ZM11.4999 12.2917C8.85492 12.2917 6.70825 10.145 6.70825 7.5C6.70825 4.855 8.85492 2.70833 11.4999 2.70833C14.1449 2.70833 16.2916 4.855 16.2916 7.5C16.2916 10.145 14.1449 12.2917 11.4999 12.2917ZM11.4999 4.625C9.90909 4.625 8.62492 5.90917 8.62492 7.5C8.62492 9.09083 9.90909 10.375 11.4999 10.375C13.0908 10.375 14.3749 9.09083 14.3749 7.5C14.3749 5.90917 13.0908 4.625 11.4999 4.625Z" fill="#C2CFE0"/>
</svg>
