<svg width="51" height="51" viewBox="0 0 51 51" fill="none" xmlns="http://www.w3.org/2000/svg">
<path d="M36.1148 17.1887L35.5691 15.3927C34.876 13.3525 32.6601 12.2605 30.6199 12.9537C29.4722 13.3436 28.5709 14.245 28.1809 15.3927L27.6352 17.1887C27.176 18.7034 27.0796 20.3049 27.3539 21.8637C27.604 23.1761 28.4372 24.3036 29.6183 24.928L29.0071 38.59C28.9253 39.3526 29.1727 40.1139 29.6871 40.6827C30.7935 41.8929 32.6716 41.9771 33.8818 40.8707C33.9472 40.8109 34.0099 40.7482 34.0697 40.6827C34.5727 40.13 34.8196 39.391 34.7497 38.647L34.1352 24.9263C35.3147 24.3016 36.1465 23.1748 36.3962 21.8637C36.6704 20.3049 36.574 18.7034 36.1148 17.1887ZM34.7217 21.5679C34.5377 22.5108 33.8657 23.2844 32.9579 23.5986C32.6134 23.7281 32.3914 24.0647 32.408 24.4324L33.054 38.7813C33.0837 39.0627 32.9909 39.3433 32.799 39.5514C32.2872 40.0581 31.4629 40.0581 30.9511 39.5514C30.7496 39.3265 30.6581 39.0239 30.7012 38.7252L31.3421 24.4324C31.3587 24.0647 31.1367 23.7281 30.7921 23.5986C29.8843 23.2844 29.2124 22.5108 29.0284 21.5679C28.801 20.2738 28.8811 18.9443 29.2621 17.6868L29.8078 15.8899C30.2301 14.7483 31.4978 14.1651 32.6396 14.5873C33.2432 14.8105 33.719 15.2864 33.9422 15.8899L34.4879 17.6868C34.8685 18.9444 34.9486 20.2738 34.7217 21.5679Z" fill="#828282"/>
<path d="M22.95 12.75C22.4805 12.75 22.1 13.1306 22.1 13.6V20.8981L19.799 23.199C19.6288 23.3686 19.5383 23.6025 19.55 23.8425L20.2937 38.7175C20.3114 39.0383 20.195 39.352 19.9724 39.5837C19.5071 40.0531 18.7494 40.0565 18.2798 39.5911C18.2773 39.5886 18.2748 39.5861 18.2724 39.5837C18.0497 39.352 17.9334 39.0383 17.9511 38.7175L18.7 23.8425C18.7119 23.6026 18.6216 23.3688 18.4518 23.199L16.15 20.8981V13.6C16.15 13.1306 15.7694 12.75 15.3 12.75C14.8305 12.75 14.45 13.1306 14.45 13.6V21.25C14.45 21.4755 14.5396 21.6916 14.699 21.851L16.9821 24.1349L16.2571 38.635C16.1799 40.2189 17.4014 41.5655 18.9852 41.6427C20.5691 41.7198 21.9157 40.4984 21.9929 38.9145C21.9974 38.8214 21.9974 38.7282 21.9929 38.6352L21.2678 24.135L23.5509 21.8511C23.7103 21.6917 23.8 21.4756 23.8 21.2501V13.6001C23.8 13.1306 23.4194 12.75 22.95 12.75Z" fill="#828282"/>
<path d="M17.85 12.75C17.3806 12.75 17 13.1306 17 13.6V20.4C17 20.8694 17.3806 21.25 17.85 21.25C18.3194 21.25 18.7 20.8694 18.7 20.4V13.6C18.7 13.1306 18.3194 12.75 17.85 12.75Z" fill="#828282"/>
<path d="M20.4 12.75C19.9306 12.75 19.55 13.1306 19.55 13.6V20.4C19.55 20.8694 19.9306 21.25 20.4 21.25C20.8695 21.25 21.25 20.8694 21.25 20.4V13.6C21.25 13.1306 20.8695 12.75 20.4 12.75Z" fill="#828282"/>
<path d="M25.5 0C11.4168 0 0 11.4168 0 25.5C0 39.5832 11.4168 51 25.5 51C39.5832 51 51 39.5832 51 25.5C50.9841 11.4234 39.5766 0.0159375 25.5 0ZM25.5 49.3C12.3556 49.3 1.7 38.6444 1.7 25.5C1.7 12.3556 12.3556 1.7 25.5 1.7C38.6444 1.7 49.3 12.3556 49.3 25.5C49.285 38.6381 38.6381 49.285 25.5 49.3Z" fill="#828282"/>
<path d="M28.2592 41.4558C28.2137 40.9886 27.7979 40.6468 27.3306 40.6924C27.3197 40.6934 27.3087 40.6947 27.2978 40.6962L27.3012 40.6953C26.1045 40.8343 24.8956 40.8343 23.6989 40.6953C23.2324 40.6406 22.8101 40.9744 22.7554 41.4408C22.7007 41.9072 23.0344 42.3296 23.5008 42.3843C24.828 42.5393 26.1687 42.5393 27.4958 42.3843C27.963 42.3388 28.3048 41.9231 28.2592 41.4558Z" fill="#828282"/>
<path d="M38.505 14.5469C38.2034 14.1872 37.6672 14.1402 37.3076 14.4419C37.3064 14.4429 37.3052 14.4439 37.3039 14.4449C36.9451 14.7475 36.8995 15.2836 37.2019 15.6425C42.3269 21.7264 41.9349 30.7225 36.3001 36.3375C35.9675 36.6689 35.9666 37.2072 36.298 37.5398C36.6294 37.8724 37.1677 37.8733 37.5003 37.5419C43.7624 31.3037 44.199 21.3075 38.505 14.5469Z" fill="#828282"/>
<path d="M19.8048 11.2354C19.8042 11.2354 19.8036 11.2352 19.803 11.2352C19.802 11.2352 19.801 11.2354 19.7999 11.2354H19.8048Z" fill="#828282"/>
<path d="M29.5095 8.97517C26.1876 8.17904 22.7037 8.39302 19.5042 9.58972C19.0647 9.75494 18.8425 10.2452 19.0078 10.6845C19.1323 11.0157 19.4489 11.2349 19.8026 11.2352C19.9043 11.2347 20.005 11.2161 20.1 11.1801C22.9813 10.1026 26.1186 9.91017 29.11 10.6276C29.5663 10.7379 30.0257 10.4575 30.1359 10.0011C30.2462 9.54477 29.9658 9.08545 29.5095 8.97517Z" fill="#828282"/>
<path d="M14.6616 36.295C11.7962 33.4345 10.1902 29.549 10.2 25.5C10.1916 22.2651 11.2163 19.1121 13.1248 16.5002C13.4069 16.125 13.3314 15.5921 12.9561 15.31C12.5808 15.0279 12.048 15.1035 11.7659 15.4787C11.7609 15.4854 11.756 15.4921 11.7512 15.4989C6.83685 22.2552 7.55998 31.5808 13.4572 37.4986C13.7895 37.8312 14.3286 37.8314 14.6612 37.4991C14.9938 37.1667 14.994 36.6276 14.6616 36.295Z" fill="#828282"/>
</svg>
