<svg width="54" height="54" viewBox="0 0 54 54" fill="none" xmlns="http://www.w3.org/2000/svg">
<path d="M6.84197 28.2277C9.25172 32.9527 11.0793 37.2347 12.5474 40.678C15.6414 47.9334 17.5087 52.3125 21.0938 52.3125C24.8965 52.3125 25.3125 49.34 25.3125 43.0312C25.3125 35.2282 26.0769 34.5938 27 34.5938C27.9231 34.5938 28.6875 35.2282 28.6875 43.0312C28.6875 49.34 29.1035 52.3125 32.9062 52.3125C36.4913 52.3125 38.3586 47.9334 41.4526 40.678C42.9207 37.2347 44.7483 32.9501 47.158 28.2277L47.4407 27.6742C48.9375 24.7657 50.625 21.4684 50.625 17.7188C50.625 8.72944 44.6951 1.6875 37.125 1.6875C34.2069 1.72077 31.3724 2.66669 29.0191 4.39256C28.4174 4.78126 27.7163 4.98802 27 4.98802C26.2837 4.98802 25.5826 4.78126 24.9809 4.39256C22.6276 2.66669 19.7931 1.72077 16.875 1.6875C9.30487 1.6875 3.375 8.72944 3.375 17.7188C3.375 21.4684 5.06672 24.7657 6.55931 27.675L6.84197 28.2277ZM16.875 3.375C19.4237 3.40256 21.8999 4.22688 23.9566 5.73244C26.4478 7.37601 29.3826 8.21726 32.3663 8.14303C34.4736 8.13088 36.5651 7.77726 38.5594 7.09594L38.0253 5.49281C35.2442 6.4801 32.2501 6.70814 29.3515 6.15347C29.5952 6.03602 29.8267 5.8947 30.0426 5.73159C32.0996 4.22617 34.5761 3.40214 37.125 3.375C43.7493 3.375 48.9375 9.67528 48.9375 17.7188C48.9375 21.0608 47.3445 24.165 45.9397 26.9038L45.6545 27.4598C43.2186 32.2355 41.3792 36.5496 39.9009 40.0157C37.1765 46.4062 35.3768 50.625 32.9062 50.625C31.0694 50.625 30.375 49.9702 30.375 43.0312C30.375 35.8914 29.9059 32.9062 27 32.9062C24.0941 32.9062 23.625 35.8914 23.625 43.0312C23.625 49.9702 22.9306 50.625 21.0938 50.625C18.6233 50.625 16.8235 46.4062 14.0991 40.0157C12.6208 36.5496 10.7814 32.2355 8.34553 27.4598L8.06034 26.9038C6.6555 24.165 5.0625 21.0608 5.0625 17.7188C5.0625 9.67528 10.2507 3.375 16.875 3.375Z" fill="#828282"/>
<path d="M17.7188 6.75V5.0625C14.2366 5.0625 7.46381 7.695 6.75 17.6588L8.4375 17.7787C9.21038 6.92887 17.3745 6.75 17.7188 6.75Z" fill="#828282"/>
<path d="M8.4375 19.4062H6.75V21.0938H8.4375V19.4062Z" fill="#828282"/>
<path d="M47.25 17.7188H45.5625C45.5625 17.7584 45.4824 21.7823 41.5007 27.3569L42.8744 28.3373C47.2003 22.275 47.25 17.9018 47.25 17.7188Z" fill="#828282"/>
</svg>
